<svg viewBox="0 0 640 200" width="640" height="200" xmlns="http://www.w3.org/2000/svg" role="img" aria-label="vectordb_massivo — hybrid dense and sparse retrieval over massive corpora">
  <title>vectordb_massivo</title>
  <rect x="1" y="1" width="638" height="198" rx="16" fill="#0A0F1C" stroke="#1C2637" stroke-width="1.5"/>

  <!-- BPMN data store glyph -->
  <rect x="36" y="52" width="96" height="96" rx="14" fill="#101828" stroke="#3A4A63" stroke-width="1.5"/>
  <g fill="none" stroke="#FF6A3D" stroke-width="2">
    <path d="M62,80 C62,73 106,73 106,80 V120 C106,127 62,127 62,120 Z"/>
    <path d="M62,80 C62,87 106,87 106,80"/>
    <path d="M62,91 C62,98 106,98 106,91"/>
  </g>

  <text x="164" y="78" font-family="ui-monospace, SFMono-Regular, 'JetBrains Mono', Menlo, Consolas, monospace" font-size="22" font-weight="700" fill="#EDF2F9">vectordb_massivo</text>
  <g font-family="-apple-system, 'Segoe UI', Roboto, 'Helvetica Neue', Arial, sans-serif" font-size="14.5" fill="#93A1B5">
    <text x="164" y="106">Hybrid dense + sparse retrieval over massive corpora:</text>
    <text x="164" y="126">the ingestion-and-ranking backbone production RAG needs.</text>
  </g>

  <g font-family="ui-monospace, SFMono-Regular, 'JetBrains Mono', Menlo, Consolas, monospace" font-size="12">
    <rect x="164" y="148" width="72" height="26" rx="13" fill="#0D1523" stroke="#2A374B"/>
    <text x="200" y="165" text-anchor="middle" fill="#93A1B5">Python</text>
    <rect x="244" y="148" width="54" height="26" rx="13" fill="#0D1523" stroke="#2A374B"/>
    <text x="271" y="165" text-anchor="middle" fill="#FF6A3D">RAG</text>
    <rect x="306" y="148" width="128" height="26" rx="13" fill="#0D1523" stroke="#2A374B"/>
    <text x="370" y="165" text-anchor="middle" fill="#93A1B5">hybrid search</text>
  </g>
</svg>
